PathFileType	4	(X/Y/Z)	pose_F01_0-62.trc
DataRate	CameraRate	NumFrames	NumMarkers	Units	OrigDataRate	OrigDataStartFrame	OrigNumFrames
30	30	10	21	m	30	12	62
Frame#	Time	CHip			RHip			RKnee			RAnkle			RBigToe			RSmallToe			RHeel			LHip			LKnee			LAnkle			LBigToe			LSmallToe			LHeel			Neck			Nose			RShoulder			RElbow			RWrist			LShoulder			LElbow			LWrist			
		X1	Y1	Z1	X2	Y2	Z2	X3	Y3	Z3	X4	Y4	Z4	X5	Y5	Z5	X6	Y6	Z6	X7	Y7	Z7	X8	Y8	Z8	X9	Y9	Z9	X10	Y10	Z10	X11	Y11	Z11	X12	Y12	Z12	X13	Y13	Z13	X14	Y14	Z14	X15	Y15	Z15	X16	Y16	Z16	X17	Y17	Z17	X18	Y18	Z18	X19	Y19	Z19	X20	Y20	Z20	X21	Y21	Z21	
12	0.4	-0.24029658164360168	1.8855991503371352	-0.5297900046223228	-0.2617360711329646	1.8777542675976722	-0.4926943526616902	-0.2775385976690561	1.7221101944883885	-0.485070273314349													-0.21919822731594546	1.8931718056787457	-0.5614778429411597	-0.20846913971799416	1.7454339482112917	-0.55276265116382	-0.21265750690524743	1.6397035523898893	-0.485466969919499	-0.1939530408230884	1.6148865521598479	-0.524684192266502	-0.1876987434068851	1.6257637615794511	-0.5243075541671725	-0.2151458484882325	1.612911700402419	-0.46126733904476874	-0.24788993839250226	2.0558117128665527	-0.5434011397524302	-0.2330349688838344	2.1156730507916617	-0.6602485415963213	-0.27517069146785583	2.0542182403269162	-0.49284374356657507	-0.27772923100219943	1.9666174128107372	-0.478767326723934	-0.28161164936571315	1.8724877086894212	-0.49174029782773865	-0.21779835429737643	2.058616955796608	-0.5886238630808708	-1.423896061973194	1.865144725043096	0.6635446423364096	-1.0185367815161734	1.8642594030061774	0.24137222115629653
13	0.43333333333333335	-0.23530021075297206	1.8865257535302833	-0.5312684541921744	-0.25375494025352036	1.8812962195843013	-0.5020930036167697	-0.27587076089081375	1.7229998633669221	-0.4824501363461547													-0.2133311808944587	1.8912228543991736	-0.5597587575573916	-0.20994636872466188	1.7435953453455404	-0.5554156178647147	-0.21324255381813811	1.637629558933823	-0.48803809306123214	-0.1939530408230884	1.6148865521598479	-0.524684192266502	-0.1876987434068851	1.6257637615794511	-0.5243075541671725	-0.2151458484882325	1.612911700402419	-0.46126733904476874	-0.2416847453031982	2.0583833846513353	-0.5585289454292411	-0.2287336585007416	2.118811954937321	-0.6654381871897582	-0.2681355506635151	2.058418471972078	-0.5055248988290695	-0.27355033015234054	1.9687196505461781	-0.4832798824036421	-0.27505901630018753	1.8931883495139485	-0.5398224768846362	-0.21261922809750297	2.058606297599921	-0.5983371261682988	-1.4139686674026226	1.8660693705188012	0.6493636119122743	-1.4298268662469473	1.8505157224934745	0.6797257848397117
14	0.4666666666666667	-0.23315329988922168	1.888255386822525	-0.5339346535051448	-0.2527134549686472	1.884362746071198	-0.49960447823264426	-0.2758644126546752	1.7207030028069568	-0.4820100035084779													-0.2099253131474091	1.8920097783479408	-0.5677539160331696	-0.20989686582177236	1.7469474258846254	-0.5559808448571434	-0.21382760073102877	1.6355555654777565	-0.4906092162029652	-0.1939530408230884	1.6148865521598479	-0.524684192266502	-0.1876987434068851	1.6257637615794511	-0.5243075541671725	-0.2151458484882325	1.612911700402419	-0.46126733904476874	-0.23553323224211228	2.0559702757054605	-0.5648390161067037	-0.22317661317372464	2.121386136268852	-0.6753384872960589	-0.2600901672109442	2.0559567969524952	-0.5131277708263079	-0.2684462201881974	1.968057029819712	-0.4924752751518219	-0.26751877612674496	1.8945390957980992	-0.5694114879633034	-0.20644303188619043	2.0561036186776844	-0.6046907880575816	-1.4040412728320515	1.8669940159945064	0.6351825814881391	-0.8137359404047141	1.8719175096941936	0.013566558283439778
15	0.5	-0.22473083001853217	1.886399637084222	-0.5514473226972979	-0.24751353927299546	1.883667290200257	-0.5092772067692523	-0.26919190792543074	1.7254388840071606	-0.48955443428860473													-0.20349102635534502	1.8882601178177632	-0.5829973552070269	-0.20753344064446796	1.7448188006713756	-0.5581474012610556	-0.21441264764391946	1.6334815720216902	-0.49318033934469835	-0.1939530408230884	1.6148865521598479	-0.524684192266502	-0.1876987434068851	1.6257637615794511	-0.5243075541671725	-0.2151458484882325	1.612911700402419	-0.46126733904476874	-0.22731613141324455	2.054806531465662	-0.5732207219791341	-0.22136961635255226	2.1201321621766485	-0.6689315522837425	-0.25313426669159345	2.0546428530754977	-0.516677905135704	-0.26359363536738756	1.9695065656123636	-0.49391877310000704	-0.2624293029955805	1.9010536497533355	-0.5626544513281083	-0.19760815183164476	2.0554934704966854	-0.6216020489331464	-1.3941138782614801	1.8679186614702117	0.6210015510640038	-0.19764501456248076	1.8933192968949126	-0.6525926682728322
16	0.5333333333333333	-0.2226377032858469	1.8870788058354475	-0.5537676937957204	-0.24226770717053286	1.8854425046625778	-0.5105459956350249	-0.2631841046789798	1.726596719981692	-0.49622836118736185													-0.2024210938724802	1.8902483208284195	-0.5888009121068022	-0.20857776414993504	1.7421598205361515	-0.5611257282520472	-0.21350739295822282	1.631406070885207	-0.49244280069269747	-0.1939530408230884	1.6148865521598479	-0.524684192266502	-0.1876987434068851	1.6257637615794511	-0.5243075541671725	-0.2151458484882325	1.612911700402419	-0.46126733904476874	-0.2191541153264871	2.0539224803953906	-0.5822402798642122	-0.2265754770714294	2.1155290810643854	-0.6485356220062289	-0.24614800375304036	2.053398610231938	-0.5193838822261628	-1.7001658639269053	1.8808650748167348	1.0871119722914755	-0.2636143189329433	1.8992172413973152	-0.5486251744954133	-0.19051918100769175	2.0543911207971397	-0.644835625063024	-1.384186483690909	1.868843306945917	0.6068205206398686	-0.1931086604409241	1.892089272178406	-0.6603935532154243
17	0.5666666666666667	-0.22123523375881066	1.8867474470110803	-0.5591299171866896	-0.23889015287528612	1.8860731375301307	-0.5094220304752999	-0.26100025317170783	1.7323354920404732	-0.49900001630785784													-0.2054344482428119	1.8899759180345217	-0.6102515813453073	-0.20848309525946368	1.7402738606896737	-0.5610335422628089	-0.21260213827252616	1.6293305697487237	-0.49170526204069664	-0.1939530408230884	1.6148865521598479	-0.524684192266502	-0.1876987434068851	1.6257637615794511	-0.5243075541671725	-0.2151458484882325	1.612911700402419	-0.46126733904476874	-0.2158899881456449	2.0490367906933913	-0.5883234610350845	-0.23202951314513934	2.1145117652396133	-0.6120057893998727	-0.2421800029986357	2.0521692430476346	-0.5154558815719836	-0.25543944232884774	1.9640929388716453	-0.4760988618343418	-0.25689577989238166	1.8973276857907517	-0.5405518822661816	-0.18582995734117258	2.0481307060575333	-0.6562802451056748	-1.3742590891203377	1.8697679524216222	0.5926394902157333	-0.18857230631936742	1.8908592474618993	-0.6681944381580163
18	0.6	-0.22409902416440775	1.888832322595544	-0.5605435774214503	-0.24105808690753905	1.8869009058486776	-0.5074590518821486	-0.2603925269456789	1.738773856792139	-0.4961038098792786													-0.20433825573229417	1.8893304114777243	-0.615784834104836	-0.2075579766225754	1.7447666804381263	-0.5581613307025522	-0.21169688358682953	1.6272550686122405	-0.49096772338869576	-0.1939530408230884	1.6148865521598479	-0.524684192266502	-0.1876987434068851	1.6257637615794511	-0.5243075541671725	-0.2151458484882325	1.612911700402419	-0.46126733904476874	-0.21293619189321852	2.0485268514297714	-0.5876836525460369	-0.23373230043311274	2.1134149501023014	-0.5817417068680653	-0.23525137848910202	2.0515410806186387	-0.5021148838154774	-0.25030200121015644	1.9647591733259637	-0.4687045673709411	-0.26143344255466217	1.8901776935863692	-0.5121321147552073	-0.1849468296705861	2.0472361758190276	-0.6725927316177756	-1.3643316945497663	1.8706925978973274	0.578458459791598	-0.18403595219781077	1.8896292227453924	-0.6759953231006083
19	0.6333333333333333	-0.2225093242879731	1.886782286082867	-0.5628618501030163	-0.2383755933457971	1.8859150448127553	-0.506634617842756	-0.26276543355392545	1.7389087106712238	-0.4846139839245175													-0.2033753785442973	1.8889162560189243	-0.6215704504155957	-0.20793455243734194	1.744539197465608	-0.5577192965839887	-0.21079162890113287	1.625179567475757	-0.49023018473669494	-0.1939530408230884	1.6148865521598479	-0.524684192266502	-0.1876987434068851	1.6257637615794511	-0.5243075541671725	-0.2151458484882325	1.612911700402419	-0.46126733904476874	-0.20876925733224708	2.045716646094544	-0.5911442428468032	-0.23381010834312393	2.112828467654209	-0.5733457538188633	-0.23227418368800992	2.0490223696526852	-0.5004720965477443	-0.2381219202025524	1.9646736548799892	-0.44718318094681514	-0.25427593675500165	1.892364859251027	-0.4542734454224021	-0.18248021233437803	2.044818166454697	-0.6830662261203143	-1.3544042999791952	1.8716172433730327	0.5642774293674628	-0.1794995980762541	1.8883991980288857	-0.6837962080432003
20	0.6666666666666666	-0.22119702308568842	1.8855154041559712	-0.5592421712919067	-0.2379591120620441	1.8853147468762455	-0.49744989264981765	-0.258879384823268	1.7382187805464724	-0.4752972819601647													-0.20225971372516796	1.8862155353125796	-0.6179847513423435	-0.20724846815983244	1.741152796320744	-0.558177071462655	-0.20988637421543624	1.6231040663392737	-0.48949264608469406	-0.1939530408230884	1.6148865521598479	-0.524684192266502	-0.1876987434068851	1.6257637615794511	-0.5243075541671725	-0.2151458484882325	1.612911700402419	-0.46126733904476874	-0.20672757990941665	2.0430440671382253	-0.5929775540672607	-0.22988063626581756	2.1116526624103455	-0.5688848223385256	-0.22932225244745646	2.0464782028568105	-0.4991841982539794	-0.2333186175911007	1.9564221837434654	-0.455062481098703	-0.2566007706574701	1.8874154502943559	-0.437194541874999	-0.18043726060555695	2.044217496563262	-0.6853259291799884	-1.3444769054086239	1.872541888848738	0.5500963989433275	-0.17496324395469742	1.887169173312379	-0.6915970929857923
21	0.7	-0.2214032179758327	1.8853497997560131	-0.5592249078277505	-0.23524501989184055	1.8850211977456102	-0.4877342113999684	-0.25813604345122126	1.738101356485048	-0.4715460354413522													-0.2003357057202479	1.8846577310110038	-0.6200250353527516	-0.20761419980918067	1.7446485086806596	-0.5580402006337442	-0.20898111952973958	1.6210285652027905	-0.48875510743269324	-0.1939530408230884	1.6148865521598479	-0.524684192266502	-0.1876987434068851	1.6257637615794511	-0.5243075541671725	-0.2151458484882325	1.612911700402419	-0.46126733904476874	-0.20461165978992174	2.0418817617604503	-0.594642103493164	-0.2279267822397166	2.1093825643356703	-0.5705453286934282	-0.2252856883265974	2.043816683247529	-0.4940531168392607	-0.2283123982134151	1.9541562919096989	-0.4558064418456706	-0.2492206788755689	1.8829400269667214	-0.4073813399773696	-0.18040021692284283	2.04216448673072	-0.6850941314571876	-1.3259822547122477	1.8726500066929392	0.5194569789468723	-0.1772695686033495	1.8883476924685163	-0.6990424259923217
